HIERARCHY
ROOT Hips
{
	OFFSET 0.000000 0.000000 0.000000
	CHANNELS 6 Xposition Yposition Zposition Zrotation Yrotation Xrotation 
	JOINT LHipJoint
	{
		OFFSET 0.000000 0.000000 0.000000
		CHANNELS 3 Zrotation Yrotation Xrotation
		JOINT LeftUpLeg
		{
			OFFSET 1.363060 -1.794630 0.839290
			CHANNELS 3 Zrotation Yrotation Xrotation
			JOINT LeftLeg
			{
				OFFSET 2.448110 -6.726130 0.000000
				CHANNELS 3 Zrotation Yrotation Xrotation
				JOINT LeftFoot
				{
					OFFSET 2.562200 -7.039590 0.000000
					CHANNELS 3 Zrotation Yrotation Xrotation
					JOINT LeftToeBase
					{
						OFFSET 0.157640 -0.433110 2.322550
						CHANNELS 3 Zrotation Yrotation Xrotation
						End Site
						{
							OFFSET 0.000000 0.000000 0.000000
						}
					}
				}
			}
		}
	}
	JOINT RHipJoint
	{
		OFFSET 0.000000 0.000000 0.000000
		CHANNELS 3 Zrotation Yrotation Xrotation
		JOINT RightUpLeg
		{
			OFFSET -1.305520 -1.794630 0.839290
			CHANNELS 3 Zrotation Yrotation Xrotation
			JOINT RightLeg
			{
				OFFSET -2.542530 -6.985550 0.000000
				CHANNELS 3 Zrotation Yrotation Xrotation
				JOINT RightFoot
				{
					OFFSET -2.568260 -7.056230 0.000000
					CHANNELS 3 Zrotation Yrotation Xrotation
					JOINT RightToeBase
					{
						OFFSET -0.164730 -0.452590 2.363150
						CHANNELS 3 Zrotation Yrotation Xrotation
						End Site
						{
							OFFSET 0.000000 0.000000 0.000000
						}
					}
				}
			}
		}
	}
	JOINT LowerBack
	{
		OFFSET 0.000000 0.000000 0.000000
		CHANNELS 3 Zrotation Yrotation Xrotation
		JOINT Spine
		{
			OFFSET 0.028270 2.035590 -0.193380
			CHANNELS 3 Zrotation Yrotation Xrotation
			JOINT Spine1
			{
				OFFSET 0.056720 2.048850 -0.042750
				CHANNELS 3 Zrotation Yrotation Xrotation
				JOINT Neck
				{
					OFFSET 0.000000 0.000000 0.000000
					CHANNELS 3 Zrotation Yrotation Xrotation
					JOINT Neck1
					{
						OFFSET -0.054170 1.746240 0.172020
						CHANNELS 3 Zrotation Yrotation Xrotation
						JOINT Head
						{
							OFFSET 0.104070 1.761360 -0.123970
							CHANNELS 3 Zrotation Yrotation Xrotation
							End Site
							{
								OFFSET 0.000000 0.000000 0.000000
							}
						}
					}
				}
				JOINT LeftShoulder
				{
					OFFSET 0.000000 0.000000 0.000000
					CHANNELS 3 Zrotation Yrotation Xrotation
					JOINT LeftArm
					{
						OFFSET 3.362410 1.200890 -0.311210
						CHANNELS 3 Zrotation Yrotation Xrotation
						JOINT LeftForeArm
						{
							OFFSET 4.983000 -0.000000 -0.000000
							CHANNELS 3 Zrotation Yrotation Xrotation
							JOINT LeftHand
							{
								OFFSET 3.483560 -0.000000 -0.000000
								CHANNELS 3 Zrotation Yrotation Xrotation
								JOINT LeftFingerBase
								{
									OFFSET 0.000000 0.000000 0.000000
									CHANNELS 3 Zrotation Yrotation Xrotation
									JOINT LeftHandIndex1
									{
										OFFSET 0.715260 -0.000000 -0.000000
										CHANNELS 3 Zrotation Yrotation Xrotation
										End Site
										{
											OFFSET 0.000000 0.000000 0.000000
										}
									}
								}
								JOINT LThumb
								{
									OFFSET 0.000000 0.000000 0.000000
									CHANNELS 3 Zrotation Yrotation Xrotation
									End Site
									{
										OFFSET 0.000000 0.000000 0.000000
									}
								}
							}
						}
					}
				}
				JOINT RightShoulder
				{
					OFFSET 0.000000 0.000000 0.000000
					CHANNELS 3 Zrotation Yrotation Xrotation
					JOINT RightArm
					{
						OFFSET -3.136600 1.374050 -0.404650
						CHANNELS 3 Zrotation Yrotation Xrotation
						JOINT RightForeArm
						{
							OFFSET -5.241900 -0.000000 -0.000000
							CHANNELS 3 Zrotation Yrotation Xrotation
							JOINT RightHand
							{
								OFFSET -3.444170 -0.000000 -0.000000
								CHANNELS 3 Zrotation Yrotation Xrotation
								JOINT RightFingerBase
								{
									OFFSET 0.000000 0.000000 0.000000
									CHANNELS 3 Zrotation Yrotation Xrotation
									JOINT RightHandIndex1
									{
										OFFSET -0.622530 -0.000000 -0.000000
										CHANNELS 3 Zrotation Yrotation Xrotation
										End Site
										{
											OFFSET 0.000000 0.000000 0.000000
										}
									}
								}
								JOINT RThumb
								{
									OFFSET 0.000000 0.000000 0.000000
									CHANNELS 3 Zrotation Yrotation Xrotation
									End Site
									{
										OFFSET 0.000000 0.000000 0.000000
									}
								}
							}
						}
					}
				}
			}
		}
	}
}
MOTION
Frames: 9
Frame Time: 0.033333
0.209245 17.021857 0.209245 3.657225 11.449557 5.951211 -4.488317 25.917020 2.784302 -19.371160 -41.168765 -28.448884 -19.000355 -6.129069 68.739985 5.964371 -22.830069 49.097078 0.000000 0.000000 0.000000 -1.316801 -23.517446 13.921147 9.897524 13.217022 -21.166678 5.580582 -3.799344 21.910522 -0.120574 12.676594 -23.634191 0.000000 0.000000 0.000000 9.564542 0.982399 -10.098875 -10.601053 1.991924 38.091828 -9.022532 0.171808 -25.263206 10.628785 -0.654509 -12.294510 1.017230 -0.114241 4.392739 0.000000 0.000000 0.000000 -6.032874 9.316113 5.503832 -62.960311 -9.768267 -1.246694 -33.089073 4.092206 -0.084373 -1.648112 -3.050285 -0.042241 -1.645656 -3.051904 0.000000 0.000000 0.000000 0.000000 0.000000 0.000000 0.000000 -15.146219 -14.645428 3.214197 90.182676 14.240720 0.858283 157.235650 69.089138 179.995253 -1.921268 1.666929 -0.002901 -1.925930 1.667511 0.000000 0.000000 0.000000 0.000000 0.000000 0.000000 0.000000 
0.211991 17.023757 0.205684 3.675609 11.846926 5.866873 -4.573748 26.070009 2.878566 -19.307987 -41.170488 -28.579997 -18.994511 -6.113149 68.799207 5.829927 -22.581003 49.590442 0.000000 0.000000 0.000000 -1.347421 -23.685343 14.005358 9.918019 13.193820 -21.224762 5.518083 -3.932290 22.082169 -0.127111 12.566744 -23.624204 0.000000 0.000000 0.000000 9.749358 1.010984 -10.429040 -10.856639 2.106647 38.734432 -9.123494 0.143994 -25.446265 10.782512 -0.634901 -12.513836 1.066913 -0.108552 4.375404 0.000000 0.000000 0.000000 -6.241722 9.309499 5.499549 -62.825697 -9.709123 -1.376378 -32.592783 4.438520 -0.086999 -1.631274 -2.989378 -0.043551 -1.628939 -2.990934 0.000000 0.000000 0.000000 0.000000 0.000000 0.000000 0.000000 -15.217967 -14.629968 3.267546 90.344148 14.442618 0.655572 157.117007 69.111977 179.993185 -1.898799 1.626322 -0.003934 -1.903475 1.626885 0.000000 0.000000 0.000000 0.000000 0.000000 0.000000 0.000000 
0.214737 17.025775 0.202072 3.694502 12.258581 5.783995 -4.659471 26.224385 2.972625 -19.247251 -41.170227 -28.711540 -18.982408 -6.096914 68.854032 5.690769 -22.316547 50.098368 0.000000 0.000000 0.000000 -1.376256 -23.853515 14.088564 9.936899 13.167314 -21.282869 5.455653 -4.070186 22.254082 -0.132960 12.450305 -23.613429 0.000000 0.000000 0.000000 9.933938 1.040552 -10.757648 -11.111322 2.223259 39.368329 -9.225179 0.115856 -25.622974 10.936416 -0.614165 -12.730551 1.117650 -0.102619 4.356688 0.000000 0.000000 0.000000 -6.452761 9.301239 5.496801 -62.683251 -9.646222 -1.498271 -32.103045 4.762949 -0.089397 -1.614673 -2.930473 -0.044747 -1.612457 -2.931969 0.000000 0.000000 0.000000 0.000000 0.000000 0.000000 0.000000 -15.288128 -14.613857 3.322021 90.503040 14.646693 0.451801 156.997066 69.136822 179.991101 -1.876411 1.586230 -0.004974 -1.881104 1.586770 0.000000 0.000000 0.000000 0.000000 0.000000 0.000000 0.000000 
0.217455 17.027926 0.198491 3.713858 12.684234 5.702656 -4.745874 26.379754 3.066456 -19.188322 -41.167216 -28.843907 -18.962802 -6.079826 68.904295 5.547107 -22.035058 50.621266 0.000000 0.000000 0.000000 -1.402952 -24.021656 14.170746 9.953772 13.137528 -21.341097 5.393547 -4.213256 22.426593 -0.138075 12.327060 -23.601612 0.000000 0.000000 0.000000 10.118263 1.071189 -11.084755 -11.365011 2.341723 39.993482 -9.327537 0.087440 -25.793413 11.090524 -0.592309 -12.944589 1.169340 -0.096444 4.336571 0.000000 0.000000 0.000000 -6.665994 9.291401 5.495466 -62.532949 -9.579667 -1.612571 -31.620196 5.066488 -0.091572 -1.598322 -2.873401 -0.045832 -1.596220 -2.874839 0.000000 0.000000 0.000000 0.000000 0.000000 0.000000 0.000000 -15.356669 -14.597100 3.377623 90.659241 14.852859 0.246985 156.875798 69.163699 179.989002 -1.854106 1.546654 -0.006023 -1.858822 1.547169 0.000000 0.000000 0.000000 0.000000 0.000000 0.000000 0.000000 
0.220186 17.030208 0.194736 3.733609 13.123850 5.622755 -4.832375 26.536730 3.160028 -19.132381 -41.162154 -28.976498 -18.935865 -6.062486 68.949237 5.398987 -21.736678 51.159069 0.000000 0.000000 0.000000 -1.428126 -24.190155 14.252099 9.969531 13.104609 -21.399185 5.331295 -4.360571 22.598053 -0.142410 12.197217 -23.588423 0.000000 0.000000 0.000000 10.302314 1.102848 -11.410288 -11.617573 2.461883 40.609888 -9.430481 0.058720 -25.957659 11.244864 -0.569343 -13.155883 1.221871 -0.090027 4.315037 0.000000 0.000000 0.000000 -6.881428 9.280022 5.495442 -62.374790 -9.509552 -1.719473 -31.144507 5.350138 -0.093533 -1.582229 -2.818006 -0.046811 -1.580239 -2.819389 0.000000 0.000000 0.000000 0.000000 0.000000 0.000000 0.000000 -15.423556 -14.579736 3.434345 90.812626 15.061025 0.041140 156.753155 69.192633 179.986889 -1.831884 1.507589 -0.007079 -1.836626 1.508077 0.000000 0.000000 0.000000 0.000000 0.000000 0.000000 0.000000 
0.212873 17.025651 0.181480 3.733448 13.501006 5.699072 -4.313830 26.456980 3.061353 -19.949516 -41.399928 -28.205566 -19.015574 -6.470113 68.637006 5.303852 -22.363247 50.598516 0.000000 0.000000 0.000000 -1.463097 -24.258680 13.873172 10.384536 13.107336 -21.333653 4.837584 -4.601600 23.294830 -0.165212 12.115819 -23.688707 0.000000 0.000000 0.000000 9.871532 1.021902 -10.671094 -11.043965 2.209011 39.492719 -9.446260 0.075011 -25.669854 11.102608 -0.592322 -12.879278 1.175347 -0.096558 4.371210 0.000000 0.000000 0.000000 -6.740129 9.323876 5.485705 -62.454972 -9.554914 -1.632178 -31.572883 5.110893 -0.092003 -1.599842 -2.866817 -0.046047 -1.597761 -2.868244 0.000000 0.000000 0.000000 0.000000 0.000000 0.000000 0.000000 -15.389469 -14.591682 3.381391 90.729783 15.007887 0.214005 156.767189 69.205458 179.990490 -1.823057 1.510709 -0.005248 -1.827473 1.511372 0.000000 0.000000 0.000000 0.000000 0.000000 0.000000 0.000000 
0.204911 17.020813 0.167528 3.736544 13.882615 5.787821 -3.755858 26.349473 2.951813 -20.826951 -41.650000 -27.370930 -19.101811 -6.917337 68.288943 5.206954 -23.055330 49.960142 0.000000 0.000000 0.000000 -1.494356 -24.312715 13.464042 10.813797 13.108088 -21.255163 4.317100 -4.843952 24.008046 -0.186232 12.017832 -23.781035 0.000000 0.000000 0.000000 9.404454 0.941699 -9.867361 -10.421879 1.946086 38.246702 -9.461027 0.097747 -25.334322 10.942186 -0.615402 -12.566142 1.127643 -0.103134 4.427158 0.000000 0.000000 0.000000 -6.577584 9.367083 5.478809 -62.543909 -9.603343 -1.528372 -32.056835 4.823354 -0.090109 -1.619370 -2.922863 -0.045102 -1.617183 -2.924343 0.000000 0.000000 0.000000 0.000000 0.000000 0.000000 0.000000 -15.350760 -14.599582 3.327551 90.635012 14.945489 0.402183 156.787252 69.217514 179.994277 -1.815088 1.516048 -0.003323 -1.819169 1.516891 0.000000 0.000000 0.000000 0.000000 0.000000 0.000000 0.000000 
0.196270 17.015647 0.153075 3.743437 14.266716 5.889646 -3.157941 26.210499 2.830887 -21.765961 -41.910950 -26.470453 -19.191606 -7.407126 67.902583 5.109682 -23.815857 49.236637 0.000000 0.000000 0.000000 -1.521563 -24.350032 13.023554 11.256020 13.106725 -21.162832 3.770504 -5.087362 24.737705 -0.204926 11.902053 -23.865045 0.000000 0.000000 0.000000 8.901284 0.863997 -8.997868 -9.751416 1.676551 36.864209 -9.475363 0.127896 -24.945234 10.763100 -0.637902 -12.214190 1.080113 -0.109611 4.481898 0.000000 0.000000 0.000000 -6.392876 9.408361 5.475737 -62.640420 -9.653877 -1.405879 -32.598315 4.479862 -0.087787 -1.640839 -2.986852 -0.043944 -1.638531 -2.988392 0.000000 0.000000 0.000000 0.000000 0.000000 0.000000 0.000000 -15.307885 -14.602009 3.274005 90.528628 14.875350 0.604033 156.813153 69.228840 179.998214 -1.808024 1.523599 -0.001323 -1.811768 1.524625 0.000000 0.000000 0.000000 0.000000 0.000000 0.000000 0.000000 
0.187486 17.010476 0.138305 3.755302 14.656209 5.996680 -2.548948 26.052021 2.708150 -22.725052 -42.172206 -25.547733 -19.280074 -7.920909 67.493776 5.008788 -24.600574 48.481599 0.000000 0.000000 0.000000 -1.545539 -24.375788 12.574739 11.692388 13.101579 -21.062489 3.219561 -5.326327 25.455638 -0.220011 11.766624 -23.935432 0.000000 0.000000 0.000000 8.393125 0.794346 -8.115978 -9.075008 1.419862 35.432865 -9.493016 0.163179 -24.525128 10.580065 -0.657521 -11.847988 1.038024 -0.115383 4.531746 0.000000 0.000000 0.000000 -6.202821 9.444526 5.477083 -62.733360 -9.700912 -1.274187 -33.152151 4.104877 -0.085204 -1.662550 -3.053855 -0.042656 -1.660116 -3.055459 0.000000 0.000000 0.000000 0.000000 0.000000 0.000000 0.000000 -15.266340 -14.597528 3.226014 90.422750 14.810658 0.800449 156.838328 69.240199 -179.997990 -1.801238 1.531276 0.000605 -1.804657 1.532476 0.000000 0.000000 0.000000 0.000000 0.000000 0.000000 0.000000 
